<svg xmlns="http://www.w3.org/2000/svg" width="1200" height="630" viewBox="0 0 1200 630" role="img" aria-label="Suhail Subair — Full Stack Developer, Kochi, India">
  <defs>
    <radialGradient id="aura" cx="76%" cy="34%" r="55%">
      <stop offset="0%" stop-color="#e3c88b" stop-opacity="0.16"/>
      <stop offset="100%" stop-color="#e3c88b" stop-opacity="0"/>
    </radialGradient>
    <pattern id="dots" width="34" height="34" patternUnits="userSpaceOnUse">
      <circle cx="1" cy="1" r="1" fill="#f5f1e8" fill-opacity="0.05"/>
    </pattern>
  </defs>

  <rect width="1200" height="630" fill="#0a0908"/>
  <rect width="1200" height="630" fill="url(#dots)"/>
  <rect width="1200" height="630" fill="url(#aura)"/>

  <!-- System Trace, bleeding off the right edge. -->
  <g transform="translate(880 96) scale(0.78)" opacity="0.85">
    <g stroke="#3d382f" stroke-width="1.3" fill="#12100e">
      <rect x="50" y="16" width="120" height="80" rx="8"/>
      <rect x="342" y="10" width="56" height="86" rx="10"/>
      <rect x="150" y="158" width="180" height="64" rx="8" stroke="#8f7040"/>
      <rect x="52" y="286" width="104" height="64" rx="8"/>
      <rect x="188" y="286" width="104" height="64" rx="8" stroke="#b8935a"/>
      <rect x="324" y="286" width="104" height="64" rx="8"/>
      <rect x="150" y="414" width="180" height="64" rx="8"/>
    </g>
    <g stroke="#2e2a23" stroke-width="1.3" fill="none">
      <path d="M110 96 L110 130 L240 130 L240 158"/>
      <path d="M370 96 L370 130 L240 130 L240 158"/>
      <path d="M240 222 L240 252 L104 252 L104 286"/>
      <path d="M240 222 L240 286"/>
      <path d="M240 222 L240 252 L376 252 L376 286"/>
      <path d="M104 350 L104 380 L240 380 L240 414"/>
      <path d="M376 350 L376 380 L240 380 L240 414"/>
      <path d="M240 350 L240 414"/>
    </g>
    <g fill="#e3c88b">
      <circle cx="110" cy="96" r="4"/>
      <circle cx="370" cy="96" r="4"/>
      <circle cx="240" cy="158" r="4"/>
      <circle cx="104" cy="286" r="4"/>
      <circle cx="240" cy="286" r="4"/>
      <circle cx="376" cy="286" r="4"/>
      <circle cx="240" cy="414" r="4"/>
    </g>
  </g>

  <!-- Copy block. -->
  <g transform="translate(88 0)">
    <rect x="0" y="214" width="120" height="3" fill="#e3c88b"/>

    <text x="0" y="330" font-family="Georgia, 'Times New Roman', serif" font-size="96" fill="#f5f1e8">
      Suhail Subair
    </text>

    <text x="0" y="392" font-family="Menlo, 'DejaVu Sans Mono', monospace" font-size="27" letter-spacing="3.6" fill="#8a8271">
      FULL STACK DEVELOPER · KOCHI, INDIA
    </text>

    <text x="0" y="466" font-family="Helvetica, Arial, sans-serif" font-size="29" fill="#c3bcac">
      Production web, mobile and backend.
    </text>
    <text x="0" y="506" font-family="Helvetica, Arial, sans-serif" font-size="29" fill="#c3bcac">
      TypeScript · React Native · Node.js · GraphQL
    </text>
  </g>
</svg>
